<svg width="322" height="320" viewBox="0 0 322 320" fill="none" xmlns="http://www.w3.org/2000/svg">
<path fill-rule="evenodd" clip-rule="evenodd" d="M165.984 317.306C201.615 299.345 277.833 260.924 308.373 154.31C305.348 156.855 301.992 159.291 298.294 161.618H298.284C292.761 165.036 286.732 167.617 280.3 169.362C276.671 182.27 264.829 191.724 250.769 191.724C247.766 191.724 244.861 191.287 242.115 190.488C235.272 195.396 227.532 199.395 219.118 202.45H219.111C212.421 204.886 205.279 206.704 197.815 207.831C194.066 212.921 188.045 216.193 181.264 216.193C174.934 216.193 169.269 213.321 165.495 208.849C164.988 208.777 164.477 208.74 163.969 208.704L163.964 208.704H163.957C158.674 208.195 153.318 207.358 147.937 206.231C143.406 210.667 137.447 213.612 130.819 214.339C125.594 228.483 121.463 243.281 118.62 258.516C124.07 263.316 127.514 270.333 127.514 278.15C127.514 285.677 124.318 292.476 119.206 297.239C133.378 306.267 146.245 312.728 155.977 317.614C157.65 318.454 159.231 319.248 160.71 320L160.95 319.855C162.519 319.052 164.201 318.205 165.984 317.306ZM218.545 222.586L221.959 232.989L232.362 236.403L221.959 239.817L218.545 250.22L215.132 239.817L204.729 236.403L215.132 232.989L218.545 222.586ZM178.306 236.404L183.876 253.377L200.849 258.947L183.876 264.518L178.306 281.491L172.738 264.518L155.764 258.947L172.738 253.377L178.306 236.404Z" fill="url(#paint0_linear_61_320)"/>
<path fill-rule="evenodd" clip-rule="evenodd" d="M127.608 205.068C126.496 205.068 125.419 204.959 124.354 204.777C117.057 223.175 111.552 242.736 108.25 262.952C114.028 265.57 118.06 271.387 118.06 278.15C118.06 287.349 110.592 294.839 101.378 294.839C92.1684 294.839 84.7039 287.349 84.7039 278.15C84.7039 269.824 90.7831 262.952 98.7423 261.68C100.077 253.462 101.771 245.354 103.782 237.355L102.796 237.537C90.2743 239.355 77.2901 236.846 66.2768 230.992C55.1871 225.065 46.0646 215.721 41.3451 203.868C40.4361 201.541 39.6872 199.177 39.1236 196.741C31.1609 195.905 24.6124 193.869 19.3039 190.815C11.5921 186.451 6.51991 180.089 3.50207 172.49C0.611486 165.254 -0.337534 156.891 0.102417 148.201C1.16048 127.331 10.2905 103.843 19.2022 88.1716C18.5404 86.6082 18.1769 84.8631 18.1769 83.0451C18.1769 75.7732 23.9981 69.8465 31.2445 69.701C37.8074 60.8293 45.1701 52.5756 53.2238 45.0273C59.3612 39.2862 65.8951 33.9488 72.7961 29.0657C72.5962 28.1494 72.4943 27.2113 72.4943 26.2368C72.4943 18.8667 78.4791 12.8857 85.8419 12.8857C89.0779 12.8857 92.0412 14.0345 94.3573 15.9507C95.7026 15.2526 97.0625 14.5727 98.4369 13.9037L98.7023 13.7837C162.339 -12.7624 227.379 2.26495 270.454 31.4944C274.683 34.3704 278.704 37.3847 282.504 40.5044C284.282 41.7588 286.016 43.0675 287.703 44.4383C299.163 53.739 308.442 65.7013 314.489 79.4816C318.543 87.9533 320.921 96.5343 321.346 104.897C322.292 123.44 313.867 140.784 293.302 153.583C286.91 157.546 279.726 160.164 271.985 161.582C271.705 173.035 262.317 182.27 250.769 182.27C247.1 182.27 243.642 181.325 240.635 179.689C233.553 185.543 225.179 190.197 215.896 193.578C208.417 196.269 200.327 198.123 191.834 199.104C190.365 203.54 186.187 206.74 181.264 206.74C176.574 206.74 172.563 203.831 170.923 199.723C168.916 199.65 166.891 199.468 164.869 199.286C158.121 198.632 151.249 197.468 144.352 195.723C140.876 201.322 134.676 205.068 127.608 205.068ZM101.418 228.01C103.171 227.756 104.916 227.392 106.622 226.956C109.214 218.084 112.217 209.394 115.577 200.959C111.788 198.014 109.105 193.76 108.221 188.851L81.2098 191.615C80.7444 193.796 78.7918 195.469 76.4575 195.469C74.465 195.469 72.7634 194.269 72.0072 192.56L48.5588 194.96C49.0024 196.814 49.566 198.596 50.2459 200.305C54.0819 209.976 61.6046 217.648 70.7745 222.52C80.0026 227.465 90.9142 229.537 101.418 228.01ZM71.7053 189.579C72.1707 187.397 74.1232 185.724 76.4575 185.724C78.45 185.724 80.1553 186.924 80.908 188.633L107.919 185.87L107.916 185.361C107.916 184.088 108.039 182.852 108.269 181.616C96.6735 175.325 85.3984 167.326 74.876 157.509C73.2143 158.237 71.389 158.673 69.462 158.673C68.5057 158.673 67.5676 158.564 66.6695 158.382C59.2485 170.199 53.1001 181.616 48.5116 191.978L71.7053 189.579ZM168.302 165.436C168.302 163.472 169.378 161.764 170.974 160.855L166.953 144.893C166.761 144.893 166.569 144.901 166.376 144.91C166.179 144.92 165.982 144.929 165.782 144.929C163.142 144.929 160.637 144.347 158.368 143.365C156.263 146.201 154.209 149.11 152.198 152.055C148.148 158.018 144.294 164.199 140.665 170.635C144.737 174.235 147.301 179.507 147.301 185.361C147.301 185.761 147.29 186.197 147.26 186.597C153.485 188.124 159.685 189.142 165.775 189.76C167.706 189.942 169.629 190.087 171.53 190.196C172.77 187.978 174.745 186.197 177.119 185.252L173.454 170.708C170.6 170.635 168.302 168.308 168.302 165.436ZM178.846 165.436C178.846 167.326 177.843 168.999 176.337 169.908L180.017 184.524C180.424 184.488 180.838 184.452 181.264 184.452C185.205 184.452 188.67 186.524 190.652 189.615C198.426 188.706 205.81 187.033 212.624 184.561C220.39 181.761 227.408 177.944 233.393 173.217C230.971 169.763 229.549 165.581 229.549 161.036C229.549 160.527 229.575 159.982 229.611 159.473C212.966 155.582 195.553 148.601 178.781 139.548C176.385 141.947 173.33 143.656 169.923 144.456L173.879 160.164C176.65 160.309 178.846 162.636 178.846 165.436ZM32.5789 148.892C32.5789 146.892 33.7678 145.183 35.4731 144.42L30.4699 96.3525C28.961 96.2435 27.5358 95.8797 26.216 95.298C18.315 109.878 10.6104 130.458 9.67592 148.674C9.30505 156.128 10.0614 163.072 12.4066 168.963C14.6318 174.562 18.3659 179.289 24.0344 182.488C28.1903 184.852 33.4406 186.488 39.9271 187.179L36.433 153.619C34.2296 153.183 32.5789 151.219 32.5789 148.892ZM42.2905 148.892C42.2905 150.855 41.1015 152.564 39.3998 153.328L42.4178 182.27C46.8209 173.107 52.2929 163.291 58.6559 153.146C57.0524 150.965 56.1071 148.238 56.1071 145.329C56.1071 143.038 56.6852 140.893 57.6924 139.002C48.8134 127.949 40.7743 115.259 33.9278 100.897L38.4401 144.129C40.6398 144.602 42.2905 146.529 42.2905 148.892ZM121.543 141.22C119.365 140.929 117.533 139.511 116.635 137.584L82.7659 144.238C82.795 144.602 82.8096 144.965 82.8096 145.329C82.8096 147.256 82.3951 149.11 81.657 150.746C91.3468 159.763 101.695 167.108 112.33 172.962C115.239 169.363 119.376 166.817 124.11 165.981L121.543 141.22ZM128.724 135.221C128.612 137.839 126.888 140.057 124.51 140.929L127.07 165.69H127.608C129.179 165.69 130.71 165.872 132.178 166.199C135.974 159.473 140.025 152.928 144.275 146.674C146.428 143.511 148.628 140.42 150.889 137.403C149.584 135.621 148.595 133.621 147.977 131.439L128.724 135.221ZM254.11 110.46C254.11 114.278 251.652 117.514 248.235 118.641L251.507 139.838C259.742 140.129 266.785 145.111 270.05 152.164C276.715 150.965 282.842 148.783 288.23 145.402C297.851 139.439 304.301 132.348 307.991 124.64L307.086 125.84L284.318 108.533C283.478 109.151 282.442 109.515 281.318 109.515C278.482 109.515 276.184 107.224 276.184 104.388C276.184 103.77 276.304 103.188 276.504 102.606L247.984 80.9725C246.591 82.3905 244.846 83.4449 242.879 83.9903L245.631 101.806C250.329 101.879 254.11 105.733 254.11 110.46ZM236.803 110.46C236.803 106.642 239.261 103.406 242.679 102.243L239.93 84.4629H239.632C236.363 84.4629 233.407 83.1175 231.28 80.9359C213.693 89.1896 196.819 101.37 181.457 116.641C183.235 119.477 184.271 122.822 184.271 126.422C184.271 128.094 184.042 129.73 183.62 131.294C199.84 140.02 216.587 146.711 232.466 150.31C235.789 144.638 241.657 140.675 248.504 139.948L245.279 119.113C240.577 119.004 236.803 115.187 236.803 110.46ZM116.057 134.676C116.173 132.021 117.904 129.803 120.285 128.967L117.337 100.534C115.522 100.534 113.781 100.134 112.199 99.4431C100.648 111.769 89.9616 124.822 80.5263 137.839C81.2353 138.893 81.8023 140.057 82.1914 141.293L116.057 134.676ZM75.334 91.662C73.1815 90.8257 71.6073 88.826 71.3528 86.4627L44.7084 85.1901C44.2357 88.1352 42.7923 90.7532 40.7198 92.7166C47.5809 107.988 55.7944 121.295 64.9643 132.748C66.3678 132.239 67.884 131.985 69.462 131.985H69.7892L75.334 91.662ZM123.245 128.64C125.427 128.931 127.263 130.349 128.15 132.276L147.413 128.495C147.337 127.84 147.293 127.149 147.293 126.422C147.293 124.313 147.653 122.277 148.311 120.386C139.247 113.805 130.68 106.715 122.9 99.3703C122.081 99.7703 121.212 100.061 120.314 100.243L123.245 128.64ZM83.8494 87.0808C83.304 89.7351 81.0607 91.8075 78.2937 92.0984L72.7562 132.276C82.4715 118.859 93.4665 105.442 105.345 92.7894C104.665 91.335 104.247 89.7349 104.145 88.0261L83.8494 87.0808ZM278.308 100.243C279.151 99.625 280.187 99.2613 281.318 99.2613C284.143 99.2613 286.438 101.552 286.438 104.388C286.438 105.006 286.328 105.624 286.114 106.17L308.628 123.259C311.086 117.55 312.078 111.551 311.766 105.37C311.675 103.588 311.478 101.77 311.169 99.9523L310.991 99.9885C310.801 99.4363 310.64 98.6146 310.492 97.8584C310.416 97.4694 310.343 97.0977 310.271 96.7889L309.522 94.389C306.028 84.6083 298.094 78.3546 288.408 74.9732C278.238 71.41 266.145 70.9372 255.005 72.9006C253.758 73.1188 252.529 73.3733 251.311 73.6278C251.173 75.4458 250.642 77.1184 249.787 78.6091L278.308 100.243ZM172.789 86.0629C171.312 85.3357 170.156 84.0994 169.582 82.5359L130.811 87.1171V87.1898C130.811 89.1169 130.404 90.935 129.666 92.6076C137.022 99.5522 145.115 106.206 153.685 112.46C156.929 109.624 161.154 107.951 165.782 107.951C166.578 107.951 167.36 107.988 168.131 108.097L172.789 86.0629ZM181.813 81.0815C181.446 84.1721 178.882 86.5717 175.734 86.6445L171.065 108.715C172.247 109.078 173.381 109.515 174.439 110.096C188.078 96.5343 202.865 85.2264 218.329 76.7546L181.813 81.0815ZM79.9699 79.8817C81.806 80.6089 83.2204 82.136 83.7585 84.0631L104.287 85.0449C104.513 83.6268 104.974 82.2815 105.625 81.0453C101.207 75.7004 97.288 70.3189 93.9502 64.9377C89.9906 58.5748 86.8346 52.1755 84.6348 45.9253L79.9699 79.8817ZM169.229 79.5909C169.596 76.5004 172.171 74.0641 175.341 73.9914L180.529 49.4487C179.25 48.976 178.061 48.3214 177.024 47.4851C162.262 55.4115 147.693 66.065 133.869 78.3546C132.506 79.5544 131.135 80.7905 129.782 82.0267C130.066 82.7176 130.299 83.4449 130.466 84.1721C138.427 83.2316 146.383 82.2912 154.34 81.3507C159.302 80.7641 164.265 80.1775 169.229 79.5909ZM71.7345 83.4811C72.578 81.2995 74.5996 79.6997 77.0139 79.4816L82.555 39.1736C80.9224 38.7591 79.399 38.0391 78.0683 37.0865C71.6217 41.6641 65.5242 46.6525 59.7976 52.0301C52.8093 58.5385 46.3882 65.6652 40.578 73.228C43.0323 75.5186 44.6284 78.6453 44.8538 82.2085L71.7345 83.4811ZM178.271 74.6096C179.748 75.3368 180.9 76.6094 181.464 78.1365L225.928 72.8644C226.597 72.5372 227.277 72.2097 227.953 71.9188C228.382 65.8468 233.444 61.0475 239.632 61.0475C240.446 61.0475 241.239 61.1201 242.006 61.2656L250.736 35.9193C243.482 33.9196 235.887 32.8504 228.11 32.8504C217.609 32.8504 206.868 35.0177 196.091 38.9009C195.811 45.1293 190.681 50.1031 184.395 50.1031C184.233 50.1031 184.073 50.0938 183.915 50.0847C183.76 50.0757 183.607 50.0669 183.456 50.0669L178.271 74.6096ZM133.517 37.6535C130.804 37.6535 128.568 35.6029 128.277 32.9704L98.8332 29.3419C97.9387 33.0652 95.4954 36.1846 92.2121 37.9699C94.0592 45.0091 97.4589 52.3939 102.102 59.884C105.167 64.7925 108.763 69.7738 112.803 74.6824C114.253 74.137 115.824 73.8458 117.46 73.8458C119.5 73.8458 121.434 74.3185 123.169 75.1184C124.609 73.7731 126.063 72.4644 127.528 71.1554C141.923 58.3932 157.158 47.2672 172.694 38.9481L172.679 38.4389L138.458 34.2249C137.709 36.2283 135.778 37.6535 133.517 37.6535ZM253.598 36.7775L244.828 62.2473C246.006 62.8291 247.086 63.6288 247.998 64.5741C249.751 64.1378 251.54 63.7744 253.347 63.4471C265.953 61.2292 279.769 61.8109 291.564 65.9195C292.99 66.4285 294.389 66.9742 295.76 67.5923C290.503 60.8294 284.1 54.2845 276.737 48.1761C269.701 43.2567 261.902 39.3954 253.598 36.7775ZM133.517 27.1092C136.033 27.1092 138.138 28.8766 138.661 31.2327L173.036 35.4684C174.334 30.4108 178.922 26.6693 184.395 26.6693C184.944 26.6693 185.496 26.7094 186.034 26.7858L190.336 11.1256C162.542 7.39874 132.382 10.1621 102.549 22.5789C101.378 23.1497 100.215 23.7316 99.0551 24.3279C99.1496 24.9497 99.1895 25.586 99.1895 26.2368V26.3714L128.804 30.018C129.67 28.2946 131.459 27.1092 133.517 27.1092ZM193.306 11.551L188.91 27.5676C190.274 28.1458 191.514 28.9711 192.564 29.9928C204.458 25.6587 216.384 23.2336 228.11 23.2336C230.688 23.2336 233.247 23.3426 235.782 23.5535C222.638 17.9942 208.341 13.8271 193.306 11.551Z" fill="url(#paint1_linear_61_320)"/>
<path d="M61.8228 239.318C56.8997 236.7 52.3184 233.465 48.217 229.756C57.7469 243.536 68.062 255.316 78.5409 265.424C81.2242 260.625 85.3801 256.771 90.4014 254.444C90.8232 252.117 91.2777 249.79 91.7541 247.499C81.297 247.063 70.9708 244.191 61.8228 239.318Z" fill="url(#paint2_linear_61_320)"/>
<path d="M46.7627 38.1265C51.0276 34.1378 55.4745 30.3343 60.0921 26.7311C40.2907 33.9157 20.3257 42.9477 0.000688306 53.521C0.000688306 70.2464 0.902348 85.9174 2.57852 100.607C4.64011 95.7709 6.83998 91.1894 9.06519 87.0081C8.83976 85.7355 8.72343 84.3904 8.72343 83.0451C8.72343 72.3554 16.0935 63.3744 26.0414 60.902C32.3244 52.7938 39.2581 45.162 46.7591 38.13L46.7627 38.1265Z" fill="url(#paint3_linear_61_320)"/>
<path d="M321.419 53.521C314.391 49.8487 307.403 46.3873 300.451 43.1113C308.806 51.1941 315.82 60.6838 321.074 71.2644C321.303 65.4833 321.419 59.5567 321.419 53.521Z" fill="url(#paint4_linear_61_320)"/>
<defs>
<linearGradient id="paint0_linear_61_320" x1="224.481" y1="281.495" x2="0.0011369" y2="53.5194" gradientUnits="userSpaceOnUse">
<stop stop-color="#0043C0"/>
<stop offset="0.57" stop-color="#068FE0"/>
<stop offset="1" stop-color="#09B1EF"/>
</linearGradient>
<linearGradient id="paint1_linear_61_320" x1="224.481" y1="281.495" x2="0.0011369" y2="53.5194" gradientUnits="userSpaceOnUse">
<stop stop-color="#0043C0"/>
<stop offset="0.57" stop-color="#068FE0"/>
<stop offset="1" stop-color="#09B1EF"/>
</linearGradient>
<linearGradient id="paint2_linear_61_320" x1="224.481" y1="281.495" x2="0.0011369" y2="53.5194" gradientUnits="userSpaceOnUse">
<stop stop-color="#0043C0"/>
<stop offset="0.57" stop-color="#068FE0"/>
<stop offset="1" stop-color="#09B1EF"/>
</linearGradient>
<linearGradient id="paint3_linear_61_320" x1="224.481" y1="281.495" x2="0.0011369" y2="53.5194" gradientUnits="userSpaceOnUse">
<stop stop-color="#0043C0"/>
<stop offset="0.57" stop-color="#068FE0"/>
<stop offset="1" stop-color="#09B1EF"/>
</linearGradient>
<linearGradient id="paint4_linear_61_320" x1="224.481" y1="281.495" x2="0.0011369" y2="53.5194" gradientUnits="userSpaceOnUse">
<stop stop-color="#0043C0"/>
<stop offset="0.57" stop-color="#068FE0"/>
<stop offset="1" stop-color="#09B1EF"/>
</linearGradient>
</defs>
</svg>
